<?xml version="1.0" standalone="no"?>
<!DOCTYPE svg PUBLIC "-//W3C//DTD SVG 20010904//EN"
 "http://www.w3.org/TR/2001/REC-SVG-20010904/DTD/svg10.dtd">
<svg version="1.0" xmlns="http://www.w3.org/2000/svg"
 width="360.000000pt" height="360.000000pt" viewBox="0 0 360.000000 360.000000"
 preserveAspectRatio="xMidYMid meet">

<g transform="translate(0.000000,360.000000) scale(0.100000,-0.100000)"
fill="#000000" stroke="none">
<path d="M1192 2864 c-306 -55 -564 -250 -701 -528 -62 -126 -81 -207 -126
-526 -20 -140 -45 -314 -55 -387 -33 -216 -25 -305 36 -430 38 -75 142 -180
216 -216 176 -85 369 -73 521 32 88 60 134 126 246 346 l106 210 365 0 365 0
109 -215 c98 -194 115 -221 175 -281 201 -200 510 -200 711 1 99 99 150 217
150 351 0 79 -103 808 -131 932 -23 97 -95 249 -158 331 -159 207 -369 337
-618 380 -119 21 -1097 21 -1211 0z m1211 -220 c213 -48 403 -195 506 -393 64
-123 59 -100 156 -777 38 -270 38 -300 -5 -383 -23 -47 -89 -107 -144 -132
-61 -28 -167 -26 -231 4 -89 42 -114 76 -245 338 -67 134 -132 252 -144 261
-19 16 -61 18 -496 18 -435 0 -477 -2 -496 -18 -12 -9 -77 -127 -144 -261
-131 -262 -156 -296 -245 -338 -64 -29 -170 -31 -231 -4 -85 39 -153 121 -173
210 -7 33 -5 76 9 175 11 72 35 250 55 396 19 146 44 303 55 349 52 215 205
402 409 499 145 70 154 70 754 71 459 1 549 -1 610 -15z"/>
<path d="M1208 2434 c-41 -21 -58 -63 -58 -139 l0 -65 -66 0 c-101 0 -143 -32
-144 -108 0 -35 6 -49 29 -73 26 -25 37 -29 90 -30 34 -1 67 -2 74 -3 8 -1 14
-26 18 -74 6 -86 28 -123 83 -136 84 -22 136 34 136 146 l0 70 38 -2 c93 -5
113 0 143 29 24 24 29 38 29 76 0 40 -5 52 -31 76 -29 27 -37 29 -105 29 l-74
0 0 65 c0 80 -19 121 -65 141 -43 18 -63 17 -97 -2z"/>
<path d="M2293 2435 c-33 -14 -63 -59 -63 -95 0 -54 57 -110 112 -110 70 0
125 85 98 151 -14 34 -63 69 -95 69 -11 -1 -34 -7 -52 -15z"/>
<path d="M2051 2201 c-26 -24 -31 -36 -31 -76 0 -38 5 -52 29 -76 24 -24 38
-29 76 -29 40 0 52 5 76 31 93 100 -50 243 -150 150z"/>
<path d="M2504 2219 c-30 -15 -54 -61 -54 -104 0 -55 44 -95 105 -95 38 0 52
5 76 29 24 24 29 38 29 76 0 40 -5 52 -31 76 -33 31 -83 38 -125 18z"/>
<path d="M2290 2001 c-23 -12 -40 -31 -49 -54 -46 -122 121 -206 189 -95 25
41 25 74 0 115 -13 21 -31 35 -57 42 -48 14 -42 14 -83 -8z"/>
</g>
</svg>
